<?xml version="1.0" encoding="UTF-8"?>
<svg id="Layer_1" data-name="Layer 1" xmlns="http://www.w3.org/2000/svg" viewBox="0 0 500 500">
  <defs>
    <style>
      .cls-1 {
        fill: #fff;
        fill-rule: evenodd;
      }
    </style>
  </defs>
  <path class="cls-1" d="m285.11,108.39c-2.34-5.89-5.49-11.13-10.7-15.02-16.9-12.58-39.76-7.39-49.13,12.28-12.22,25.63-23.27,51.82-34.99,77.69-2.26,5-1.03,9.43.8,14,23.07,57.92,46.19,115.81,69.13,173.78,2.52,6.37,6.3,9.06,13.31,8.91,17.73-.37,35.47-.12,53.21-.12,17.39,0,34.78.04,52.17-.01,13.16-.04,13.72-.89,9.01-12.73-34.27-86.26-68.54-172.52-102.8-258.78Zm-118.83,163.47c-30.98.02-56.6,25.15-56.93,55.84-.32,30.36,26.48,56.71,57.56,56.57,31.17-.13,55.37-24.91,55.34-56.66-.03-31.88-24.01-55.77-55.97-55.75ZM250,2.61C113.58,2.61,2.6,113.58,2.6,250s110.98,247.4,247.39,247.4,247.4-110.98,247.4-247.4S386.42,2.61,250,2.61Zm0,475c-125.5,0-227.6-102.1-227.6-227.6S124.5,22.4,250,22.4s227.6,102.1,227.6,227.6-102.1,227.6-227.6,227.6Z"/>
</svg>