<?xml version="1.0" encoding="UTF-8"?>
<svg id="Layer_1" data-name="Layer 1" xmlns="http://www.w3.org/2000/svg" viewBox="0 0 80 80">
  <defs>
    <style>
      .cls-1 {
        fill: #fff;
        fill-rule: evenodd;
      }
    </style>
  </defs>
  <path class="cls-1" d="m40.01.8C18.36.8.8,18.36.8,40.01s17.56,39.2,39.21,39.2,39.2-17.54,39.2-39.2S61.66.8,40.01.8Zm0,71.42c-17.8,0-32.23-14.43-32.23-32.21S22.21,7.78,40.01,7.78s32.21,14.43,32.21,32.23-14.43,32.21-32.21,32.21Z"/>
  <path class="cls-1" d="m60.17,37.41v5.19c0,1.1-.88,1.98-1.98,1.98h-13.6v13.62c0,1.08-.88,1.98-1.98,1.98h-5.19c-1.1,0-2-.9-2-1.98v-13.62h-13.6c-1.08,0-1.98-.88-1.98-1.98v-5.19c0-1.1.9-1.98,1.98-1.98h13.6v-13.6c0-1.1.9-2,2-2h5.19c1.1,0,1.98.9,1.98,2v13.6h13.6c1.1,0,1.98.88,1.98,1.98Z"/>
</svg>